<?xml version="1.0" encoding="utf-8"?>
<!-- Generator: Adobe Illustrator 15.0.0, SVG Export Plug-In  -->
<!DOCTYPE svg PUBLIC "-//W3C//DTD SVG 1.1//EN" "http://www.w3.org/Graphics/SVG/1.1/DTD/svg11.dtd" [
	<!ENTITY ns_flows "http://ns.adobe.com/Flows/1.0/">
]>
<svg version="1.1"
	 xmlns="http://www.w3.org/2000/svg" xmlns:xlink="http://www.w3.org/1999/xlink" xmlns:a="http://ns.adobe.com/AdobeSVGViewerExtensions/3.0/"
	 x="0px" y="0px" width="114px" height="114px" viewBox="0 0 114 114" enable-background="new 0 0 114 114" xml:space="preserve">
<defs>
</defs>
<circle fill="#FFFFFF" cx="57.168" cy="57.168" r="57.168"/>
<path fill="#2E3D51" d="M79.831,48.314c0-1.593-0.211-3-0.634-4.22s-0.964-2.188-1.623-2.907c-0.658-0.718-1.462-1.303-2.404-1.756
	c-0.944-0.452-1.869-0.757-2.775-0.915c-0.904-0.157-1.868-0.236-2.892-0.236s-2.124,0.251-3.305,0.753
	c-1.18,0.501-2.268,1.131-3.26,1.889c-0.994,0.757-1.846,1.465-2.553,2.124c-0.709,0.66-1.299,1.265-1.771,1.815
	c-0.354,0.433-0.835,0.649-1.445,0.649s-1.093-0.217-1.446-0.649c-0.473-0.551-1.063-1.156-1.77-1.815
	c-0.709-0.659-1.561-1.367-2.555-2.124c-0.993-0.758-2.079-1.387-3.26-1.889c-1.181-0.502-2.282-0.753-3.305-0.753
	c-1.023,0-1.987,0.079-2.892,0.236c-0.906,0.157-1.831,0.462-2.774,0.915c-0.944,0.453-1.746,1.038-2.405,1.756
	c-0.658,0.718-1.2,1.687-1.623,2.907s-0.634,2.626-0.634,4.22c0,3.305,1.839,6.797,5.519,10.477l17.145,16.524L74.283,58.82
	C77.982,55.122,79.831,51.62,79.831,48.314L79.831,48.314z"/>
<path fill="#2E3D51" d="M83.608,48.314c0,4.348-2.252,8.774-6.757,13.279L58.467,79.299c-0.354,0.354-0.787,0.532-1.298,0.532
	c-0.512,0-0.944-0.179-1.299-0.532L37.456,61.535c-0.196-0.158-0.467-0.414-0.811-0.768c-0.345-0.354-0.891-0.998-1.639-1.933
	c-0.748-0.935-1.416-1.894-2.006-2.877c-0.59-0.984-1.116-2.174-1.579-3.571c-0.462-1.396-0.693-2.754-0.693-4.072
	c0-4.328,1.249-7.712,3.748-10.151c2.497-2.439,5.951-3.659,10.357-3.659c1.22,0,2.464,0.211,3.732,0.635
	c1.27,0.422,2.449,0.994,3.541,1.711c1.093,0.718,2.031,1.392,2.818,2.022c0.787,0.629,1.534,1.298,2.243,2.006
	c0.707-0.708,1.455-1.377,2.242-2.006c0.787-0.63,1.727-1.304,2.818-2.022c1.092-0.717,2.271-1.289,3.541-1.711
	c1.269-0.423,2.513-0.635,3.732-0.635c4.407,0,7.86,1.22,10.358,3.659C82.359,40.603,83.608,43.987,83.608,48.314z"/>
</svg>
